<svg xmlns="http://www.w3.org/2000/svg" version="1.1" xmlns:xlink="http://www.w3.org/1999/xlink" xmlns:svgjs="http://svgjs.dev/svgjs" viewBox="0 0 800 800"><defs><linearGradient gradientTransform="rotate(270)" x1="50%" y1="0%" x2="50%" y2="100%" id="sssquiggly-grad"><stop stop-color="hsl(265, 55%, 30%)" stop-opacity="1" offset="0%"></stop><stop stop-color="hsl(265, 55%, 60%)" stop-opacity="1" offset="100%"></stop></linearGradient></defs><g stroke-width="2" stroke="url(#sssquiggly-grad)" fill="none" stroke-linecap="round" transform="matrix(1,0,0,1,0,52.49909591674805)"><path d="M10,10C21.805555555555557,14.166666666666668,40.97222222222223,37.708333333333336,66.66666666666667,30C92.36111111111111,22.291666666666664,105.55555555555557,-27.416666666666668,133.33333333333334,-27C161.11111111111111,-26.583333333333332,172.22222222222223,30.958333333333332,200,32C227.77777777777777,33.041666666666664,238.8888888888889,-20.125,266.6666666666667,-22C294.44444444444446,-23.875,305.5555555555556,23,333.33333333333337,23C361.11111111111114,23,372.22222222222223,-26.583333333333332,400,-22C427.77777777777777,-17.416666666666668,438.8888888888889,42.708333333333336,466.6666666666667,45C494.44444444444446,47.291666666666664,505.5555555555556,-13.5,533.3333333333334,-11C561.1111111111111,-8.5,572.2222222222222,57.625,600,57C627.7777777777778,56.375,638.8888888888889,-13.166666666666666,666.6666666666667,-14C694.4444444444446,-14.833333333333334,707.6388888888889,48,733.3333333333334,53C759.0277777777778,58,778.1944444444445,18.958333333333336,790,10"></path><path d="M10,10C21.805555555555557,14.166666666666668,40.97222222222223,37.708333333333336,66.66666666666667,30C92.36111111111111,22.291666666666664,105.55555555555557,-27.416666666666668,133.33333333333334,-27C161.11111111111111,-26.583333333333332,172.22222222222223,30.958333333333332,200,32C227.77777777777777,33.041666666666664,238.8888888888889,-20.125,266.6666666666667,-22C294.44444444444446,-23.875,305.5555555555556,23,333.33333333333337,23C361.11111111111114,23,372.22222222222223,-26.583333333333332,400,-22C427.77777777777777,-17.416666666666668,438.8888888888889,42.708333333333336,466.6666666666667,45C494.44444444444446,47.291666666666664,505.5555555555556,-13.5,533.3333333333334,-11C561.1111111111111,-8.5,572.2222222222222,57.625,600,57C627.7777777777778,56.375,638.8888888888889,-13.166666666666666,666.6666666666667,-14C694.4444444444446,-14.833333333333334,707.6388888888889,48,733.3333333333334,53C759.0277777777778,58,778.1944444444445,18.958333333333336,790,10" transform="matrix(1,0,0,1,0,665)"></path><path d="M10,10C21.805555555555557,14.166666666666668,40.97222222222223,37.708333333333336,66.66666666666667,30C92.36111111111111,22.291666666666664,105.55555555555557,-27.416666666666668,133.33333333333334,-27C161.11111111111111,-26.583333333333332,172.22222222222223,30.958333333333332,200,32C227.77777777777777,33.041666666666664,238.8888888888889,-20.125,266.6666666666667,-22C294.44444444444446,-23.875,305.5555555555556,23,333.33333333333337,23C361.11111111111114,23,372.22222222222223,-26.583333333333332,400,-22C427.77777777777777,-17.416666666666668,438.8888888888889,42.708333333333336,466.6666666666667,45C494.44444444444446,47.291666666666664,505.5555555555556,-13.5,533.3333333333334,-11C561.1111111111111,-8.5,572.2222222222222,57.625,600,57C627.7777777777778,56.375,638.8888888888889,-13.166666666666666,666.6666666666667,-14C694.4444444444446,-14.833333333333334,707.6388888888889,48,733.3333333333334,53C759.0277777777778,58,778.1944444444445,18.958333333333336,790,10" transform="matrix(1,0,0,1,0,630)"></path><path d="M10,10C21.805555555555557,14.166666666666668,40.97222222222223,37.708333333333336,66.66666666666667,30C92.36111111111111,22.291666666666664,105.55555555555557,-27.416666666666668,133.33333333333334,-27C161.11111111111111,-26.583333333333332,172.22222222222223,30.958333333333332,200,32C227.77777777777777,33.041666666666664,238.8888888888889,-20.125,266.6666666666667,-22C294.44444444444446,-23.875,305.5555555555556,23,333.33333333333337,23C361.11111111111114,23,372.22222222222223,-26.583333333333332,400,-22C427.77777777777777,-17.416666666666668,438.8888888888889,42.708333333333336,466.6666666666667,45C494.44444444444446,47.291666666666664,505.5555555555556,-13.5,533.3333333333334,-11C561.1111111111111,-8.5,572.2222222222222,57.625,600,57C627.7777777777778,56.375,638.8888888888889,-13.166666666666666,666.6666666666667,-14C694.4444444444446,-14.833333333333334,707.6388888888889,48,733.3333333333334,53C759.0277777777778,58,778.1944444444445,18.958333333333336,790,10" transform="matrix(1,0,0,1,0,595)"></path><path d="M10,10C21.805555555555557,14.166666666666668,40.97222222222223,37.708333333333336,66.66666666666667,30C92.36111111111111,22.291666666666664,105.55555555555557,-27.416666666666668,133.33333333333334,-27C161.11111111111111,-26.583333333333332,172.22222222222223,30.958333333333332,200,32C227.77777777777777,33.041666666666664,238.8888888888889,-20.125,266.6666666666667,-22C294.44444444444446,-23.875,305.5555555555556,23,333.33333333333337,23C361.11111111111114,23,372.22222222222223,-26.583333333333332,400,-22C427.77777777777777,-17.416666666666668,438.8888888888889,42.708333333333336,466.6666666666667,45C494.44444444444446,47.291666666666664,505.5555555555556,-13.5,533.3333333333334,-11C561.1111111111111,-8.5,572.2222222222222,57.625,600,57C627.7777777777778,56.375,638.8888888888889,-13.166666666666666,666.6666666666667,-14C694.4444444444446,-14.833333333333334,707.6388888888889,48,733.3333333333334,53C759.0277777777778,58,778.1944444444445,18.958333333333336,790,10" transform="matrix(1,0,0,1,0,560)"></path><path d="M10,10C21.805555555555557,14.166666666666668,40.97222222222223,37.708333333333336,66.66666666666667,30C92.36111111111111,22.291666666666664,105.55555555555557,-27.416666666666668,133.33333333333334,-27C161.11111111111111,-26.583333333333332,172.22222222222223,30.958333333333332,200,32C227.77777777777777,33.041666666666664,238.8888888888889,-20.125,266.6666666666667,-22C294.44444444444446,-23.875,305.5555555555556,23,333.33333333333337,23C361.11111111111114,23,372.22222222222223,-26.583333333333332,400,-22C427.77777777777777,-17.416666666666668,438.8888888888889,42.708333333333336,466.6666666666667,45C494.44444444444446,47.291666666666664,505.5555555555556,-13.5,533.3333333333334,-11C561.1111111111111,-8.5,572.2222222222222,57.625,600,57C627.7777777777778,56.375,638.8888888888889,-13.166666666666666,666.6666666666667,-14C694.4444444444446,-14.833333333333334,707.6388888888889,48,733.3333333333334,53C759.0277777777778,58,778.1944444444445,18.958333333333336,790,10" transform="matrix(1,0,0,1,0,525)"></path><path d="M10,10C21.805555555555557,14.166666666666668,40.97222222222223,37.708333333333336,66.66666666666667,30C92.36111111111111,22.291666666666664,105.55555555555557,-27.416666666666668,133.33333333333334,-27C161.11111111111111,-26.583333333333332,172.22222222222223,30.958333333333332,200,32C227.77777777777777,33.041666666666664,238.8888888888889,-20.125,266.6666666666667,-22C294.44444444444446,-23.875,305.5555555555556,23,333.33333333333337,23C361.11111111111114,23,372.22222222222223,-26.583333333333332,400,-22C427.77777777777777,-17.416666666666668,438.8888888888889,42.708333333333336,466.6666666666667,45C494.44444444444446,47.291666666666664,505.5555555555556,-13.5,533.3333333333334,-11C561.1111111111111,-8.5,572.2222222222222,57.625,600,57C627.7777777777778,56.375,638.8888888888889,-13.166666666666666,666.6666666666667,-14C694.4444444444446,-14.833333333333334,707.6388888888889,48,733.3333333333334,53C759.0277777777778,58,778.1944444444445,18.958333333333336,790,10" transform="matrix(1,0,0,1,0,490)"></path><path d="M10,10C21.805555555555557,14.166666666666668,40.97222222222223,37.708333333333336,66.66666666666667,30C92.36111111111111,22.291666666666664,105.55555555555557,-27.416666666666668,133.33333333333334,-27C161.11111111111111,-26.583333333333332,172.22222222222223,30.958333333333332,200,32C227.77777777777777,33.041666666666664,238.8888888888889,-20.125,266.6666666666667,-22C294.44444444444446,-23.875,305.5555555555556,23,333.33333333333337,23C361.11111111111114,23,372.22222222222223,-26.583333333333332,400,-22C427.77777777777777,-17.416666666666668,438.8888888888889,42.708333333333336,466.6666666666667,45C494.44444444444446,47.291666666666664,505.5555555555556,-13.5,533.3333333333334,-11C561.1111111111111,-8.5,572.2222222222222,57.625,600,57C627.7777777777778,56.375,638.8888888888889,-13.166666666666666,666.6666666666667,-14C694.4444444444446,-14.833333333333334,707.6388888888889,48,733.3333333333334,53C759.0277777777778,58,778.1944444444445,18.958333333333336,790,10" transform="matrix(1,0,0,1,0,455)"></path><path d="M10,10C21.805555555555557,14.166666666666668,40.97222222222223,37.708333333333336,66.66666666666667,30C92.36111111111111,22.291666666666664,105.55555555555557,-27.416666666666668,133.33333333333334,-27C161.11111111111111,-26.583333333333332,172.22222222222223,30.958333333333332,200,32C227.77777777777777,33.041666666666664,238.8888888888889,-20.125,266.6666666666667,-22C294.44444444444446,-23.875,305.5555555555556,23,333.33333333333337,23C361.11111111111114,23,372.22222222222223,-26.583333333333332,400,-22C427.77777777777777,-17.416666666666668,438.8888888888889,42.708333333333336,466.6666666666667,45C494.44444444444446,47.291666666666664,505.5555555555556,-13.5,533.3333333333334,-11C561.1111111111111,-8.5,572.2222222222222,57.625,600,57C627.7777777777778,56.375,638.8888888888889,-13.166666666666666,666.6666666666667,-14C694.4444444444446,-14.833333333333334,707.6388888888889,48,733.3333333333334,53C759.0277777777778,58,778.1944444444445,18.958333333333336,790,10" transform="matrix(1,0,0,1,0,420)"></path><path d="M10,10C21.805555555555557,14.166666666666668,40.97222222222223,37.708333333333336,66.66666666666667,30C92.36111111111111,22.291666666666664,105.55555555555557,-27.416666666666668,133.33333333333334,-27C161.11111111111111,-26.583333333333332,172.22222222222223,30.958333333333332,200,32C227.77777777777777,33.041666666666664,238.8888888888889,-20.125,266.6666666666667,-22C294.44444444444446,-23.875,305.5555555555556,23,333.33333333333337,23C361.11111111111114,23,372.22222222222223,-26.583333333333332,400,-22C427.77777777777777,-17.416666666666668,438.8888888888889,42.708333333333336,466.6666666666667,45C494.44444444444446,47.291666666666664,505.5555555555556,-13.5,533.3333333333334,-11C561.1111111111111,-8.5,572.2222222222222,57.625,600,57C627.7777777777778,56.375,638.8888888888889,-13.166666666666666,666.6666666666667,-14C694.4444444444446,-14.833333333333334,707.6388888888889,48,733.3333333333334,53C759.0277777777778,58,778.1944444444445,18.958333333333336,790,10" transform="matrix(1,0,0,1,0,385)"></path><path d="M10,10C21.805555555555557,14.166666666666668,40.97222222222223,37.708333333333336,66.66666666666667,30C92.36111111111111,22.291666666666664,105.55555555555557,-27.416666666666668,133.33333333333334,-27C161.11111111111111,-26.583333333333332,172.22222222222223,30.958333333333332,200,32C227.77777777777777,33.041666666666664,238.8888888888889,-20.125,266.6666666666667,-22C294.44444444444446,-23.875,305.5555555555556,23,333.33333333333337,23C361.11111111111114,23,372.22222222222223,-26.583333333333332,400,-22C427.77777777777777,-17.416666666666668,438.8888888888889,42.708333333333336,466.6666666666667,45C494.44444444444446,47.291666666666664,505.5555555555556,-13.5,533.3333333333334,-11C561.1111111111111,-8.5,572.2222222222222,57.625,600,57C627.7777777777778,56.375,638.8888888888889,-13.166666666666666,666.6666666666667,-14C694.4444444444446,-14.833333333333334,707.6388888888889,48,733.3333333333334,53C759.0277777777778,58,778.1944444444445,18.958333333333336,790,10" transform="matrix(1,0,0,1,0,350)"></path><path d="M10,10C21.805555555555557,14.166666666666668,40.97222222222223,37.708333333333336,66.66666666666667,30C92.36111111111111,22.291666666666664,105.55555555555557,-27.416666666666668,133.33333333333334,-27C161.11111111111111,-26.583333333333332,172.22222222222223,30.958333333333332,200,32C227.77777777777777,33.041666666666664,238.8888888888889,-20.125,266.6666666666667,-22C294.44444444444446,-23.875,305.5555555555556,23,333.33333333333337,23C361.11111111111114,23,372.22222222222223,-26.583333333333332,400,-22C427.77777777777777,-17.416666666666668,438.8888888888889,42.708333333333336,466.6666666666667,45C494.44444444444446,47.291666666666664,505.5555555555556,-13.5,533.3333333333334,-11C561.1111111111111,-8.5,572.2222222222222,57.625,600,57C627.7777777777778,56.375,638.8888888888889,-13.166666666666666,666.6666666666667,-14C694.4444444444446,-14.833333333333334,707.6388888888889,48,733.3333333333334,53C759.0277777777778,58,778.1944444444445,18.958333333333336,790,10" transform="matrix(1,0,0,1,0,315)"></path><path d="M10,10C21.805555555555557,14.166666666666668,40.97222222222223,37.708333333333336,66.66666666666667,30C92.36111111111111,22.291666666666664,105.55555555555557,-27.416666666666668,133.33333333333334,-27C161.11111111111111,-26.583333333333332,172.22222222222223,30.958333333333332,200,32C227.77777777777777,33.041666666666664,238.8888888888889,-20.125,266.6666666666667,-22C294.44444444444446,-23.875,305.5555555555556,23,333.33333333333337,23C361.11111111111114,23,372.22222222222223,-26.583333333333332,400,-22C427.77777777777777,-17.416666666666668,438.8888888888889,42.708333333333336,466.6666666666667,45C494.44444444444446,47.291666666666664,505.5555555555556,-13.5,533.3333333333334,-11C561.1111111111111,-8.5,572.2222222222222,57.625,600,57C627.7777777777778,56.375,638.8888888888889,-13.166666666666666,666.6666666666667,-14C694.4444444444446,-14.833333333333334,707.6388888888889,48,733.3333333333334,53C759.0277777777778,58,778.1944444444445,18.958333333333336,790,10" transform="matrix(1,0,0,1,0,280)"></path><path d="M10,10C21.805555555555557,14.166666666666668,40.97222222222223,37.708333333333336,66.66666666666667,30C92.36111111111111,22.291666666666664,105.55555555555557,-27.416666666666668,133.33333333333334,-27C161.11111111111111,-26.583333333333332,172.22222222222223,30.958333333333332,200,32C227.77777777777777,33.041666666666664,238.8888888888889,-20.125,266.6666666666667,-22C294.44444444444446,-23.875,305.5555555555556,23,333.33333333333337,23C361.11111111111114,23,372.22222222222223,-26.583333333333332,400,-22C427.77777777777777,-17.416666666666668,438.8888888888889,42.708333333333336,466.6666666666667,45C494.44444444444446,47.291666666666664,505.5555555555556,-13.5,533.3333333333334,-11C561.1111111111111,-8.5,572.2222222222222,57.625,600,57C627.7777777777778,56.375,638.8888888888889,-13.166666666666666,666.6666666666667,-14C694.4444444444446,-14.833333333333334,707.6388888888889,48,733.3333333333334,53C759.0277777777778,58,778.1944444444445,18.958333333333336,790,10" transform="matrix(1,0,0,1,0,245)"></path><path d="M10,10C21.805555555555557,14.166666666666668,40.97222222222223,37.708333333333336,66.66666666666667,30C92.36111111111111,22.291666666666664,105.55555555555557,-27.416666666666668,133.33333333333334,-27C161.11111111111111,-26.583333333333332,172.22222222222223,30.958333333333332,200,32C227.77777777777777,33.041666666666664,238.8888888888889,-20.125,266.6666666666667,-22C294.44444444444446,-23.875,305.5555555555556,23,333.33333333333337,23C361.11111111111114,23,372.22222222222223,-26.583333333333332,400,-22C427.77777777777777,-17.416666666666668,438.8888888888889,42.708333333333336,466.6666666666667,45C494.44444444444446,47.291666666666664,505.5555555555556,-13.5,533.3333333333334,-11C561.1111111111111,-8.5,572.2222222222222,57.625,600,57C627.7777777777778,56.375,638.8888888888889,-13.166666666666666,666.6666666666667,-14C694.4444444444446,-14.833333333333334,707.6388888888889,48,733.3333333333334,53C759.0277777777778,58,778.1944444444445,18.958333333333336,790,10" transform="matrix(1,0,0,1,0,210)"></path><path d="M10,10C21.805555555555557,14.166666666666668,40.97222222222223,37.708333333333336,66.66666666666667,30C92.36111111111111,22.291666666666664,105.55555555555557,-27.416666666666668,133.33333333333334,-27C161.11111111111111,-26.583333333333332,172.22222222222223,30.958333333333332,200,32C227.77777777777777,33.041666666666664,238.8888888888889,-20.125,266.6666666666667,-22C294.44444444444446,-23.875,305.5555555555556,23,333.33333333333337,23C361.11111111111114,23,372.22222222222223,-26.583333333333332,400,-22C427.77777777777777,-17.416666666666668,438.8888888888889,42.708333333333336,466.6666666666667,45C494.44444444444446,47.291666666666664,505.5555555555556,-13.5,533.3333333333334,-11C561.1111111111111,-8.5,572.2222222222222,57.625,600,57C627.7777777777778,56.375,638.8888888888889,-13.166666666666666,666.6666666666667,-14C694.4444444444446,-14.833333333333334,707.6388888888889,48,733.3333333333334,53C759.0277777777778,58,778.1944444444445,18.958333333333336,790,10" transform="matrix(1,0,0,1,0,175)"></path><path d="M10,10C21.805555555555557,14.166666666666668,40.97222222222223,37.708333333333336,66.66666666666667,30C92.36111111111111,22.291666666666664,105.55555555555557,-27.416666666666668,133.33333333333334,-27C161.11111111111111,-26.583333333333332,172.22222222222223,30.958333333333332,200,32C227.77777777777777,33.041666666666664,238.8888888888889,-20.125,266.6666666666667,-22C294.44444444444446,-23.875,305.5555555555556,23,333.33333333333337,23C361.11111111111114,23,372.22222222222223,-26.583333333333332,400,-22C427.77777777777777,-17.416666666666668,438.8888888888889,42.708333333333336,466.6666666666667,45C494.44444444444446,47.291666666666664,505.5555555555556,-13.5,533.3333333333334,-11C561.1111111111111,-8.5,572.2222222222222,57.625,600,57C627.7777777777778,56.375,638.8888888888889,-13.166666666666666,666.6666666666667,-14C694.4444444444446,-14.833333333333334,707.6388888888889,48,733.3333333333334,53C759.0277777777778,58,778.1944444444445,18.958333333333336,790,10" transform="matrix(1,0,0,1,0,140)"></path><path d="M10,10C21.805555555555557,14.166666666666668,40.97222222222223,37.708333333333336,66.66666666666667,30C92.36111111111111,22.291666666666664,105.55555555555557,-27.416666666666668,133.33333333333334,-27C161.11111111111111,-26.583333333333332,172.22222222222223,30.958333333333332,200,32C227.77777777777777,33.041666666666664,238.8888888888889,-20.125,266.6666666666667,-22C294.44444444444446,-23.875,305.5555555555556,23,333.33333333333337,23C361.11111111111114,23,372.22222222222223,-26.583333333333332,400,-22C427.77777777777777,-17.416666666666668,438.8888888888889,42.708333333333336,466.6666666666667,45C494.44444444444446,47.291666666666664,505.5555555555556,-13.5,533.3333333333334,-11C561.1111111111111,-8.5,572.2222222222222,57.625,600,57C627.7777777777778,56.375,638.8888888888889,-13.166666666666666,666.6666666666667,-14C694.4444444444446,-14.833333333333334,707.6388888888889,48,733.3333333333334,53C759.0277777777778,58,778.1944444444445,18.958333333333336,790,10" transform="matrix(1,0,0,1,0,105)"></path><path d="M10,10C21.805555555555557,14.166666666666668,40.97222222222223,37.708333333333336,66.66666666666667,30C92.36111111111111,22.291666666666664,105.55555555555557,-27.416666666666668,133.33333333333334,-27C161.11111111111111,-26.583333333333332,172.22222222222223,30.958333333333332,200,32C227.77777777777777,33.041666666666664,238.8888888888889,-20.125,266.6666666666667,-22C294.44444444444446,-23.875,305.5555555555556,23,333.33333333333337,23C361.11111111111114,23,372.22222222222223,-26.583333333333332,400,-22C427.77777777777777,-17.416666666666668,438.8888888888889,42.708333333333336,466.6666666666667,45C494.44444444444446,47.291666666666664,505.5555555555556,-13.5,533.3333333333334,-11C561.1111111111111,-8.5,572.2222222222222,57.625,600,57C627.7777777777778,56.375,638.8888888888889,-13.166666666666666,666.6666666666667,-14C694.4444444444446,-14.833333333333334,707.6388888888889,48,733.3333333333334,53C759.0277777777778,58,778.1944444444445,18.958333333333336,790,10" transform="matrix(1,0,0,1,0,70)"></path><path d="M10,10C21.805555555555557,14.166666666666668,40.97222222222223,37.708333333333336,66.66666666666667,30C92.36111111111111,22.291666666666664,105.55555555555557,-27.416666666666668,133.33333333333334,-27C161.11111111111111,-26.583333333333332,172.22222222222223,30.958333333333332,200,32C227.77777777777777,33.041666666666664,238.8888888888889,-20.125,266.6666666666667,-22C294.44444444444446,-23.875,305.5555555555556,23,333.33333333333337,23C361.11111111111114,23,372.22222222222223,-26.583333333333332,400,-22C427.77777777777777,-17.416666666666668,438.8888888888889,42.708333333333336,466.6666666666667,45C494.44444444444446,47.291666666666664,505.5555555555556,-13.5,533.3333333333334,-11C561.1111111111111,-8.5,572.2222222222222,57.625,600,57C627.7777777777778,56.375,638.8888888888889,-13.166666666666666,666.6666666666667,-14C694.4444444444446,-14.833333333333334,707.6388888888889,48,733.3333333333334,53C759.0277777777778,58,778.1944444444445,18.958333333333336,790,10" transform="matrix(1,0,0,1,0,35)"></path></g></svg>